<?xml version="1.0" encoding="utf-8"?>
<!-- Generator: Adobe Illustrator 19.1.0, SVG Export Plug-In . SVG Version: 6.00 Build 0)  -->
<svg version="1.1" id="Layer_1" xmlns="http://www.w3.org/2000/svg" xmlns:xlink="http://www.w3.org/1999/xlink" x="0px" y="0px"
	 viewBox="128 75.4 495.8 91.6" style="enable-background:new 128 75.4 495.8 91.6;" xml:space="preserve">
<style type="text/css">
	.st0{fill:#FFFFFF;}
</style>
<g>
	<path class="st0" d="M173.8,75.4c-25.3,0-45.8,20.5-45.8,45.8s20.5,45.8,45.8,45.8s45.8-20.5,45.8-45.8
		C219.5,95.9,199.1,75.4,173.8,75.4z M186.4,142.6h-6l-1.1-3c-0.7,1.2-1.8,2.1-3.1,2.8c-1.3,0.7-2.7,1-4.2,1s-2.9-0.3-4.2-0.9
		s-2.3-1.3-3.1-2.2c-0.8-0.9-1.5-2-2.1-3.3c-0.5-1.3-1-2.6-1.2-3.8c-0.2-1.3-0.4-2.7-0.4-4.1V114c0-10.1,4.2-15.2,12.6-15.2
		c1.8,0,3.3,0.2,4.7,0.7c1.4,0.5,2.6,1.1,3.5,1.9s1.7,1.8,2.3,3s1,2.5,1.3,3.9c0.2,1.4,0.4,3,0.4,4.7v2.6h-8.3v-3
		c0-0.7,0-1.4-0.1-1.9s-0.1-1.2-0.3-1.9c-0.2-0.7-0.4-1.3-0.7-1.7c-0.2-0.4-0.7-0.8-1.2-1.1s-1.1-0.4-1.8-0.4c-2.7,0-4,2.1-4,6.3
		v18.5c0,4.2,1.3,6.3,4,6.3c2.6,0,3.9-2.2,3.9-6.6v-3.5h-4.9v-6.3H186C186.4,120.6,186.4,142.6,186.4,142.6z"/>
	<g>
		<g>
			<g>
				<path class="st0" d="M346.7,139.3V103h8.9c1.3,0,2.4,0.2,3.4,0.5s1.8,0.8,2.5,1.4c0.6,0.6,1.2,1.3,1.6,2.2
					c0.4,0.8,0.7,1.7,0.9,2.7c0.2,0.9,0.3,1.9,0.3,3s-0.1,2.1-0.2,3.1c-0.1,0.9-0.4,1.9-0.8,2.8c-0.4,0.9-0.9,1.7-1.5,2.4
					c-0.6,0.6-1.5,1.2-2.5,1.6s-2.2,0.6-3.6,0.6H350v16.2h-3.3V139.3L346.7,139.3z M349.9,120.6h6c1.8,0,3.1-0.6,3.9-1.9
					s1.2-3.2,1.2-5.9c0-2.5-0.4-4.3-1.2-5.5s-2.1-1.8-3.8-1.8h-6L349.9,120.6L349.9,120.6L349.9,120.6z"/>
			</g>
			<g>
				<path class="st0" d="M367.9,139.3V103h3.2v16.5h11.2V103h3.2v36.4h-3.2v-17.7h-11.2v17.7h-3.2L367.9,139.3L367.9,139.3z"/>
			</g>
			<g>
				<path class="st0" d="M391.7,139.3V103h8.9c1.3,0,2.4,0.2,3.4,0.5s1.8,0.8,2.5,1.4c0.6,0.6,1.2,1.3,1.6,2.2
					c0.4,0.8,0.7,1.7,0.9,2.7c0.2,0.9,0.3,1.9,0.3,3s-0.1,2.1-0.2,3.1c-0.1,0.9-0.4,1.9-0.8,2.8s-0.9,1.7-1.5,2.4
					c-0.6,0.6-1.5,1.2-2.5,1.6s-2.2,0.6-3.6,0.6H395v16.2h-3.3V139.3L391.7,139.3z M394.9,120.6h6c1.8,0,3.1-0.6,3.9-1.9
					s1.2-3.2,1.2-5.9c0-2.5-0.4-4.3-1.2-5.5c-0.8-1.2-2.1-1.8-3.8-1.8h-6L394.9,120.6L394.9,120.6L394.9,120.6z"/>
			</g>
			<g>
				<path class="st0" d="M420.9,130.4V103h3.2v28.2c0,2.1,0.5,3.6,1.4,4.7c0.9,1,2.5,1.5,4.8,1.5c2.1,0,3.6-0.5,4.5-1.5
					s1.4-2.6,1.4-4.6V103h3.2v27.4c0,6.3-3,9.5-9.1,9.5c-1.5,0-2.7-0.2-3.8-0.5s-2-0.8-2.7-1.4s-1.3-1.3-1.7-2.1s-0.7-1.7-0.9-2.6
					S420.9,131.5,420.9,130.4z"/>
			</g>
			<g>
				<path class="st0" d="M443.7,130.6l2.8-0.8c0.1,1,0.3,2,0.6,2.8c0.3,0.9,0.7,1.7,1.2,2.4s1.1,1.3,2,1.7c0.8,0.4,1.7,0.6,2.8,0.6
					c1.6,0,2.9-0.5,3.8-1.4s1.4-2.2,1.4-3.9c0-1.4-0.4-2.7-1.2-4c-0.8-1.3-2-2.8-3.6-4.5l-5.7-6c-1.2-1.3-2.2-2.5-2.9-3.7
					c-0.7-1.1-1-2.3-1-3.6c0-2.4,0.8-4.3,2.3-5.7s3.6-2.1,6-2.1s4.3,0.7,5.7,2c1.5,1.3,2.4,3.3,2.9,5.9l0.1,0.3l-2.7,0.8v-0.3
					c-0.3-1.8-0.9-3.3-2-4.5s-2.4-1.7-4-1.7s-2.9,0.4-3.8,1.2c-1,0.8-1.4,2-1.4,3.6c0,1,0.3,1.9,0.8,2.8s1.2,1.9,2.2,3l5.3,5.8
					c0.1,0.2,0.5,0.5,1.1,1.2c0.6,0.6,0.9,1,1.1,1.2s0.5,0.6,1,1.1c0.5,0.6,0.8,1,1,1.3c0.2,0.3,0.4,0.7,0.8,1.2s0.5,1,0.7,1.4
					c0.1,0.4,0.2,0.9,0.3,1.4s0.2,1,0.2,1.5c0,2.6-0.8,4.6-2.4,6s-3.7,2.1-6.2,2.1c-1.3,0-2.5-0.2-3.5-0.8c-1.1-0.5-1.9-1.2-2.7-2.1
					c-0.7-0.9-1.3-1.9-1.8-3C444.3,133,443.9,131.9,443.7,130.6z"/>
			</g>
			<g>
				<path class="st0" d="M465.4,139.3V103h12.7v2.6h-9.5v13.8h6.8v2.4h-6.8v15h9.5v2.6L465.4,139.3L465.4,139.3z"/>
			</g>
			<g>
				<path class="st0" d="M482.2,139.3V103h9.7c1.2,0,2.3,0.2,3.2,0.5s1.7,0.8,2.3,1.3c0.6,0.6,1,1.2,1.4,2.1
					c0.4,0.8,0.6,1.7,0.7,2.6c0.1,0.9,0.2,1.9,0.2,2.9c0,4.6-1.7,7.6-5.1,8.8l5.6,18.2h-3.4l-5.3-17.8h-6.1v17.8L482.2,139.3
					L482.2,139.3z M485.4,119h6.5c0.9,0,1.7-0.2,2.3-0.5s1.1-0.9,1.4-1.6s0.5-1.4,0.7-2.1c0.2-0.7,0.2-1.6,0.2-2.5
					c0-0.8,0-1.5-0.1-2.1s-0.2-1.2-0.4-1.8c-0.2-0.6-0.5-1.1-0.8-1.5s-0.8-0.7-1.3-1c-0.5-0.2-1.2-0.4-1.9-0.4h-6.6L485.4,119
					L485.4,119z"/>
			</g>
			<g>
				<path class="st0" d="M512.7,129.2v-15.4c0-7.5,3.2-11.3,9.6-11.3c1,0,1.9,0.1,2.8,0.3c0.9,0.2,1.5,0.5,2.1,0.9s1.1,0.9,1.5,1.5
					s0.8,1.2,1,1.9c0.3,0.6,0.5,1.4,0.6,2.3c0.2,0.9,0.3,1.7,0.3,2.5c0.1,0.8,0.1,1.7,0.1,2.7v0.3h-3.3v-0.3c0-0.1,0-0.1,0-0.3
					c0-1,0-1.8,0-2.3s-0.1-1.2-0.2-2.1s-0.2-1.5-0.5-2c-0.2-0.5-0.5-0.9-0.9-1.4c-0.4-0.5-0.9-0.9-1.5-1.1c-0.6-0.2-1.4-0.3-2.2-0.3
					c-1.2,0-2.2,0.2-3,0.6c-0.8,0.4-1.5,1-2,1.7s-0.8,1.5-1,2.3c-0.2,0.8-0.3,1.7-0.3,2.7v18.2c0,0.9,0.1,1.8,0.3,2.5
					c0.2,0.7,0.5,1.4,0.9,2.1s1,1.2,1.9,1.6c0.8,0.4,1.9,0.6,3.1,0.6c1.1,0,2.1-0.2,2.9-0.6c0.8-0.4,1.4-0.9,1.8-1.6
					c0.4-0.7,0.7-1.4,0.8-2.1c0.2-0.7,0.2-1.5,0.2-2.4v-6.1h-4.5v-2.4h7.7v17.3h-1.5l-1-3.5c-0.5,1.3-1.3,2.3-2.5,3
					c-1.2,0.7-2.6,1.1-4,1.1c-1,0-1.9-0.1-2.7-0.3c-0.8-0.2-1.5-0.4-2.1-0.7s-1.1-0.6-1.6-1.1c-0.5-0.4-0.9-0.9-1.2-1.3
					c-0.3-0.4-0.6-0.9-0.8-1.5c-0.2-0.6-0.4-1.1-0.5-1.6c-0.1-0.5-0.2-1-0.3-1.6s-0.1-1.1-0.1-1.4
					C512.7,130.1,512.7,129.7,512.7,129.2z"/>
			</g>
			<g>
				<path class="st0" d="M536.3,139.3V103h9.7c1.2,0,2.3,0.2,3.2,0.5c0.9,0.3,1.7,0.8,2.3,1.3c0.6,0.6,1,1.2,1.4,2.1
					c0.4,0.8,0.6,1.7,0.7,2.6c0.1,0.9,0.2,1.9,0.2,2.9c0,4.6-1.7,7.6-5.1,8.8l5.6,18.2h-3.4l-5.3-17.8h-6.1v17.8L536.3,139.3
					L536.3,139.3L536.3,139.3z M539.5,119h6.5c0.9,0,1.7-0.2,2.3-0.5c0.6-0.3,1.1-0.9,1.4-1.6c0.3-0.7,0.5-1.4,0.7-2.1
					c0.2-0.7,0.2-1.6,0.2-2.5c0-0.8,0-1.5-0.1-2.1s-0.2-1.2-0.4-1.8c-0.2-0.6-0.5-1.1-0.8-1.5c-0.3-0.4-0.8-0.7-1.3-1
					c-0.5-0.2-1.2-0.4-1.9-0.4h-6.5V119H539.5z"/>
			</g>
			<g>
				<path class="st0" d="M558.2,128.8v-15.2c0-1.3,0.1-2.5,0.3-3.5c0.2-1.1,0.5-2.1,1-3c0.5-1,1-1.8,1.7-2.4
					c0.7-0.7,1.6-1.2,2.6-1.6c1.1-0.4,2.3-0.6,3.7-0.6s2.6,0.2,3.7,0.6c1.1,0.4,2,0.9,2.6,1.6c0.7,0.7,1.3,1.5,1.7,2.4
					c0.5,1,0.8,2,1,3c0.2,1.1,0.3,2.2,0.3,3.5v15.2c0,7.4-3.1,11.1-9.3,11.1S558.2,136.2,558.2,128.8z M573.5,129.5v-16.7
					c0-5.2-2-7.8-6.1-7.8c-4.1,0-6.1,2.6-6.1,7.8v16.7c0,5.2,2,7.8,6.1,7.8C571.5,137.3,573.5,134.7,573.5,129.5z"/>
			</g>
			<g>
				<path class="st0" d="M581.7,130.4V103h3.2v28.2c0,2.1,0.5,3.6,1.4,4.7c0.9,1,2.5,1.5,4.8,1.5c2.1,0,3.6-0.5,4.5-1.5
					c0.9-1,1.4-2.6,1.4-4.6V103h3.2v27.4c0,6.3-3,9.5-9.1,9.5c-1.5,0-2.7-0.2-3.8-0.5c-1.1-0.3-2-0.8-2.7-1.4
					c-0.7-0.6-1.3-1.3-1.7-2.1c-0.4-0.8-0.7-1.7-0.9-2.6C581.8,132.4,581.7,131.5,581.7,130.4z"/>
			</g>
			<g>
				<path class="st0" d="M606.2,139.3V103h8.9c1.3,0,2.4,0.2,3.4,0.5s1.8,0.8,2.5,1.4c0.6,0.6,1.2,1.3,1.6,2.2
					c0.4,0.8,0.7,1.7,0.9,2.7c0.2,0.9,0.3,1.9,0.3,3s-0.1,2.1-0.2,3.1c-0.1,0.9-0.4,1.9-0.8,2.8s-0.9,1.7-1.5,2.4
					c-0.6,0.6-1.5,1.2-2.5,1.6s-2.2,0.6-3.6,0.6h-5.8v16.2h-3.2L606.2,139.3L606.2,139.3z M609.4,120.6h6c1.8,0,3.1-0.6,3.9-1.9
					s1.2-3.2,1.2-5.9c0-2.5-0.4-4.3-1.2-5.5s-2.1-1.8-3.8-1.8h-6L609.4,120.6L609.4,120.6L609.4,120.6z"/>
			</g>
		</g>
		<g>
			<path class="st0" d="M246.9,129.2v-15.4c0-7.5,3.2-11.3,9.6-11.3c1,0,1.9,0.1,2.8,0.3c0.9,0.2,1.5,0.5,2.1,0.9
				c0.6,0.4,1.1,0.9,1.5,1.5c0.4,0.6,0.8,1.2,1,1.9c0.3,0.6,0.5,1.4,0.6,2.3c0.2,0.9,0.3,1.7,0.3,2.5c0.1,0.8,0.1,1.7,0.1,2.7v0.3
				h-3.2v-0.3c0-0.1,0-0.1,0-0.3c0-1,0-1.8,0-2.3s-0.1-1.2-0.2-2.1c-0.1-0.9-0.2-1.5-0.5-2c-0.2-0.5-0.5-0.9-0.9-1.4
				s-0.9-0.9-1.5-1.1c-0.6-0.2-1.4-0.3-2.2-0.3c-1.2,0-2.2,0.2-3,0.6s-1.5,1-2,1.7s-0.8,1.5-1,2.3s-0.3,1.7-0.3,2.7v18.1
				c0,0.9,0.1,1.8,0.3,2.5s0.5,1.4,0.9,2.1s1,1.2,1.9,1.6c0.8,0.4,1.8,0.6,3.1,0.6c1.1,0,2.1-0.2,2.8-0.6c0.8-0.4,1.4-0.9,1.8-1.6
				c0.4-0.7,0.7-1.4,0.8-2.1c0.2-0.7,0.2-1.5,0.2-2.4v-6.1h-4.5V122h7.7v17.3h-1.4l-0.9-3.5c-0.5,1.3-1.3,2.2-2.5,3
				c-1.2,0.7-2.6,1.1-4,1.1c-1,0-1.9-0.1-2.7-0.3s-1.5-0.4-2.1-0.7c-0.6-0.3-1.1-0.6-1.6-1.1c-0.5-0.4-0.9-0.9-1.2-1.3
				s-0.6-0.9-0.8-1.5s-0.4-1.1-0.5-1.6s-0.2-1-0.3-1.6s-0.1-1.1-0.1-1.4C246.9,130.1,246.9,129.6,246.9,129.2z"/>
			<path class="st0" d="M270.5,139.3V103h8.9c1.3,0,2.4,0.2,3.4,0.5s1.8,0.8,2.4,1.4s1.2,1.3,1.6,2.2s0.7,1.7,0.9,2.7
				c0.2,0.9,0.3,1.9,0.3,3s-0.1,2.1-0.2,3.1c-0.1,0.9-0.4,1.9-0.8,2.8c-0.4,0.9-0.9,1.7-1.5,2.4c-0.6,0.6-1.5,1.2-2.5,1.6
				c-1,0.4-2.2,0.6-3.5,0.6h-5.7v16.1h-3.3V139.3z M273.7,120.6h6c1.8,0,3.1-0.6,3.9-1.9c0.8-1.3,1.2-3.2,1.2-5.9
				c0-2.5-0.4-4.3-1.2-5.5c-0.8-1.2-2.1-1.8-3.8-1.8h-6L273.7,120.6L273.7,120.6z"/>
			<path class="st0" d="M291.2,130.4V103h3.2v28.1c0,2.1,0.5,3.6,1.4,4.7s2.5,1.5,4.8,1.5c2.1,0,3.6-0.5,4.5-1.5
				c0.9-1,1.4-2.6,1.4-4.6V103h3.2v27.4c0,6.3-3,9.5-9.1,9.5c-1.4,0-2.7-0.2-3.8-0.5c-1.1-0.3-2-0.8-2.7-1.4s-1.3-1.3-1.7-2.1
				c-0.4-0.8-0.7-1.7-0.9-2.6C291.2,132.5,291.2,131.5,291.2,130.4z"/>
			<path class="st0" d="M314.9,129.2v-15.4c0-7.5,3.2-11.3,9.6-11.3c1,0,1.9,0.1,2.8,0.3c0.9,0.2,1.5,0.5,2.1,0.9
				c0.6,0.4,1.1,0.9,1.5,1.5c0.4,0.6,0.8,1.2,1,1.9c0.3,0.6,0.5,1.4,0.6,2.3c0.2,0.9,0.3,1.7,0.3,2.5c0.1,0.8,0.1,1.7,0.1,2.7v0.3
				h-3.2v-0.3c0-0.1,0-0.1,0-0.3c0-1,0-1.8,0-2.3s-0.1-1.2-0.2-2.1c-0.1-0.9-0.2-1.5-0.5-2c-0.2-0.5-0.5-0.9-0.9-1.4
				s-0.9-0.9-1.5-1.1c-0.6-0.2-1.4-0.3-2.2-0.3c-1.2,0-2.2,0.2-3,0.6c-0.8,0.4-1.5,1-2,1.7s-0.8,1.5-1,2.3c-0.2,0.8-0.3,1.7-0.3,2.7
				v18.1c0,0.9,0.1,1.8,0.3,2.5c0.2,0.7,0.5,1.4,0.9,2.1c0.4,0.7,1,1.2,1.9,1.6c0.8,0.4,1.8,0.6,3.1,0.6c1.1,0,2.1-0.2,2.8-0.6
				c0.8-0.4,1.4-0.9,1.8-1.6c0.4-0.7,0.7-1.4,0.8-2.1c0.2-0.7,0.2-1.5,0.2-2.4v-6.1h-4.5V122h7.7v17.3h-1.4l-0.9-3.5
				c-0.5,1.3-1.3,2.2-2.5,3c-1.2,0.7-2.6,1.1-4,1.1c-1,0-1.9-0.1-2.7-0.3c-0.8-0.2-1.5-0.4-2.1-0.7c-0.6-0.3-1.1-0.6-1.6-1.1
				c-0.5-0.4-0.9-0.9-1.2-1.3s-0.6-0.9-0.8-1.5c-0.2-0.6-0.4-1.1-0.5-1.6c-0.1-0.5-0.2-1-0.3-1.6s-0.1-1.1-0.1-1.4
				C314.9,130.1,314.9,129.6,314.9,129.2z"/>
		</g>
	</g>
</g>
</svg>
