<?xml version="1.0" encoding="utf-8"?>
<!-- Generator: Adobe Illustrator 19.1.0, SVG Export Plug-In . SVG Version: 6.00 Build 0)  -->
<svg version="1.1" id="Layer_1" xmlns="http://www.w3.org/2000/svg" xmlns:xlink="http://www.w3.org/1999/xlink" x="0px" y="0px"
	 viewBox="-163.8 454.9 529.9 91.5" style="enable-background:new -163.8 454.9 529.9 91.5;" xml:space="preserve">
<style type="text/css">
	.st0{fill:#FFFFFF;}
</style>
<g>
	<path class="st0" d="M-118,454.9c-25.3,0-45.8,20.5-45.8,45.8c0,25.3,20.5,45.8,45.8,45.8s45.8-20.5,45.8-45.8
		C-72.3,475.4-92.7,454.9-118,454.9z M-105.4,522.1h-6l-1.1-3c-0.7,1.2-1.8,2.1-3.1,2.8c-1.3,0.7-2.7,1-4.2,1
		c-1.5,0-2.9-0.3-4.2-0.9s-2.3-1.3-3.1-2.2c-0.8-0.9-1.5-2-2.1-3.3c-0.5-1.3-1-2.6-1.2-3.8c-0.2-1.3-0.4-2.7-0.4-4.1v-15.1
		c0-10.1,4.2-15.2,12.6-15.2c1.8,0,3.3,0.2,4.7,0.7c1.4,0.5,2.6,1.1,3.5,1.9s1.7,1.8,2.3,3s1,2.5,1.3,3.9c0.2,1.4,0.4,3,0.4,4.7v2.6
		h-8.3v-3c0-0.7,0-1.4-0.1-1.9c-0.1-0.5-0.1-1.2-0.3-1.9c-0.2-0.7-0.4-1.3-0.7-1.7c-0.2-0.4-0.7-0.8-1.2-1.1
		c-0.5-0.3-1.1-0.4-1.8-0.4c-2.7,0-4,2.1-4,6.3v18.5c0,4.2,1.3,6.3,4,6.3c2.6,0,3.9-2.2,3.9-6.6v-3.5h-4.9v-6.3h13.6
		C-105.4,500.1-105.4,522.1-105.4,522.1z"/>
	<g>
		<path class="st0" d="M-45.3,508.7v-15.4c0-7.5,3.2-11.3,9.6-11.3c1,0,1.9,0.1,2.8,0.3c0.9,0.2,1.5,0.5,2.1,0.9s1.1,0.9,1.5,1.5
			s0.8,1.2,1,1.9c0.3,0.6,0.5,1.4,0.6,2.3c0.2,0.9,0.3,1.7,0.3,2.5c0.1,0.8,0.1,1.7,0.1,2.7v0.3h-3.2v-0.3c0-0.1,0-0.1,0-0.3
			c0-1,0-1.8,0-2.3s-0.1-1.2-0.2-2.1s-0.2-1.5-0.5-2c-0.2-0.5-0.5-0.9-0.9-1.4c-0.4-0.5-0.9-0.9-1.5-1.1c-0.6-0.2-1.4-0.3-2.2-0.3
			c-1.2,0-2.2,0.2-3,0.6s-1.5,1-2,1.7s-0.8,1.5-1,2.3s-0.3,1.7-0.3,2.7v18.2c0,0.9,0.1,1.8,0.3,2.5c0.2,0.7,0.5,1.4,0.9,2.1
			c0.4,0.7,1,1.2,1.9,1.6c0.8,0.4,1.9,0.6,3.1,0.6c1.1,0,2.1-0.2,2.9-0.6c0.8-0.4,1.4-0.9,1.8-1.6c0.4-0.7,0.7-1.4,0.8-2.1
			c0.2-0.7,0.2-1.5,0.2-2.4v-6.1h-4.5v-2.4h7.7V519h-1.4l-1-3.5c-0.5,1.3-1.3,2.3-2.5,3c-1.2,0.7-2.6,1.1-4,1.1
			c-1,0-1.9-0.1-2.7-0.3s-1.5-0.4-2.1-0.7c-0.6-0.3-1.1-0.6-1.6-1.1c-0.5-0.4-0.9-0.9-1.2-1.3c-0.3-0.4-0.6-0.9-0.8-1.5
			s-0.4-1.1-0.5-1.6c-0.1-0.5-0.2-1-0.3-1.6c-0.1-0.6-0.1-1.1-0.1-1.4C-45.3,509.6-45.3,509.2-45.3,508.7z"/>
		<path class="st0" d="M-22.2,509.9v-27.4h3.2v28.2c0,2.1,0.5,3.6,1.4,4.7c0.9,1.1,2.5,1.5,4.8,1.5c2.1,0,3.6-0.5,4.5-1.5
			s1.4-2.6,1.4-4.6v-28.3h3.2v27.4c0,6.3-3,9.5-9.1,9.5c-1.5,0-2.7-0.2-3.8-0.5c-1.1-0.3-2-0.8-2.7-1.4s-1.3-1.3-1.7-2.1
			s-0.7-1.7-0.9-2.6C-22.1,512-22.2,511-22.2,509.9z"/>
		<path class="st0" d="M2.2,518.8v-36.3h12.7v2.6H5.4v13.8h6.8v2.4H5.4v15h9.5v2.6L2.2,518.8L2.2,518.8z"/>
		<path class="st0" d="M19,518.8v-36.3h3.2v33.8h10.2v2.6L19,518.8L19,518.8z"/>
		<path class="st0" d="M35.4,518.8v-36.3h8.9c1.3,0,2.4,0.2,3.4,0.5s1.8,0.8,2.5,1.4c0.6,0.6,1.2,1.3,1.6,2.2
			c0.4,0.8,0.7,1.7,0.9,2.7c0.2,0.9,0.3,1.9,0.3,3s-0.1,2.1-0.2,3.1c-0.1,0.9-0.4,1.9-0.8,2.8s-0.9,1.7-1.5,2.4
			c-0.6,0.6-1.5,1.2-2.5,1.6s-2.2,0.6-3.6,0.6h-5.7V519h-3.3V518.8z M38.6,500.1h6c1.8,0,3.1-0.6,3.9-1.9s1.2-3.2,1.2-5.9
			c0-2.5-0.4-4.3-1.2-5.5s-2.1-1.8-3.8-1.8h-6L38.6,500.1L38.6,500.1z"/>
		<path class="st0" d="M56.6,518.8v-36.3h3.2V499H71v-16.5h3.2v36.4H71v-17.7H59.8v17.7h-3.2V518.8z"/>
		<path class="st0" d="M89,518.8v-36.3h8.9c1.3,0,2.4,0.2,3.4,0.5s1.8,0.8,2.5,1.4c0.6,0.6,1.2,1.3,1.6,2.2c0.4,0.8,0.7,1.7,0.9,2.7
			c0.2,0.9,0.3,1.9,0.3,3s-0.1,2.1-0.2,3.1c-0.1,0.9-0.4,1.9-0.8,2.8c-0.4,0.9-0.9,1.7-1.5,2.4c-0.6,0.6-1.5,1.2-2.5,1.6
			s-2.2,0.6-3.6,0.6h-5.7V519H89L89,518.8L89,518.8z M92.2,500.1h6c1.8,0,3.1-0.6,3.9-1.9c0.8-1.3,1.2-3.2,1.2-5.9
			c0-2.5-0.4-4.3-1.2-5.5s-2.1-1.8-3.8-1.8h-6L92.2,500.1L92.2,500.1L92.2,500.1z"/>
		<path class="st0" d="M110.2,518.8v-36.3h3.2V499h11.2v-16.5h3.2v36.4h-3.2v-17.7h-11.2v17.7h-3.2V518.8z"/>
		<path class="st0" d="M134,518.8v-36.3h8.9c1.3,0,2.4,0.2,3.4,0.5s1.8,0.8,2.5,1.4c0.6,0.6,1.2,1.3,1.6,2.2
			c0.4,0.8,0.7,1.7,0.9,2.7c0.2,0.9,0.3,1.9,0.3,3s-0.1,2.1-0.2,3.1c-0.1,0.9-0.4,1.9-0.8,2.8c-0.4,0.9-0.9,1.7-1.5,2.4
			c-0.6,0.6-1.5,1.2-2.5,1.6s-2.2,0.6-3.6,0.6h-5.7V519H134L134,518.8L134,518.8z M137.2,500.1h6c1.8,0,3.1-0.6,3.9-1.9
			c0.8-1.3,1.2-3.2,1.2-5.9c0-2.5-0.4-4.3-1.2-5.5s-2.1-1.8-3.8-1.8h-6L137.2,500.1L137.2,500.1L137.2,500.1z"/>
		<path class="st0" d="M163.2,509.9v-27.4h3.2v28.2c0,2.1,0.5,3.6,1.4,4.7c0.9,1,2.5,1.5,4.8,1.5c2.1,0,3.6-0.5,4.5-1.5
			s1.4-2.6,1.4-4.6v-28.3h3.2v27.4c0,6.3-3,9.5-9.1,9.5c-1.5,0-2.7-0.2-3.8-0.5s-2-0.8-2.7-1.4s-1.3-1.3-1.7-2.1s-0.7-1.7-0.9-2.6
			C163.3,511.9,163.2,511,163.2,509.9z"/>
		<path class="st0" d="M186,510.1l2.8-0.8c0.1,1,0.3,2,0.6,2.8c0.3,0.9,0.7,1.7,1.2,2.4s1.1,1.3,2,1.7c0.8,0.4,1.7,0.6,2.8,0.6
			c1.6,0,2.9-0.5,3.8-1.4c0.9-0.9,1.4-2.2,1.4-3.9c0-1.4-0.4-2.7-1.2-4s-2-2.8-3.6-4.5l-5.7-6c-1.2-1.3-2.2-2.5-2.9-3.7
			c-0.7-1.1-1-2.3-1-3.6c0-2.4,0.8-4.3,2.3-5.7c1.5-1.4,3.6-2.1,6-2.1s4.3,0.7,5.7,2c1.5,1.3,2.4,3.3,2.9,5.9l0.1,0.3l-2.7,0.8v-0.3
			c-0.3-1.8-0.9-3.3-2-4.5s-2.4-1.7-4-1.7s-2.9,0.4-3.8,1.2c-1,0.8-1.4,2-1.4,3.6c0,1,0.3,1.9,0.8,2.8s1.2,1.9,2.2,3l5.3,5.8
			c0.1,0.2,0.5,0.5,1.1,1.2c0.6,0.6,0.9,1,1.1,1.2c0.2,0.2,0.5,0.6,1,1.1c0.5,0.6,0.8,1,1,1.3s0.4,0.7,0.8,1.2s0.5,1,0.7,1.4
			c0.1,0.4,0.2,0.9,0.3,1.4s0.2,1,0.2,1.5c0,2.6-0.8,4.6-2.4,6c-1.6,1.4-3.7,2.1-6.2,2.1c-1.3,0-2.5-0.2-3.5-0.8
			c-1.1-0.5-1.9-1.2-2.7-2.1c-0.7-0.9-1.3-1.9-1.8-3C186.6,512.5,186.2,511.4,186,510.1z"/>
		<path class="st0" d="M207.7,518.8v-36.3h12.7v2.6h-9.5v13.8h6.8v2.4h-6.8v15h9.5v2.6L207.7,518.8L207.7,518.8z"/>
		<path class="st0" d="M224.5,518.8v-36.3h9.7c1.2,0,2.3,0.2,3.2,0.5c0.9,0.3,1.7,0.8,2.3,1.3c0.6,0.6,1,1.2,1.4,2.1
			c0.4,0.8,0.6,1.7,0.7,2.6s0.2,1.9,0.2,2.9c0,4.6-1.7,7.6-5.1,8.8l5.6,18.2h-3.4l-5.3-17.8h-6.1v17.8L224.5,518.8L224.5,518.8z
			 M227.7,498.5h6.5c0.9,0,1.7-0.2,2.3-0.5c0.6-0.3,1.1-0.9,1.4-1.6s0.5-1.4,0.7-2.1s0.2-1.6,0.2-2.5c0-0.8,0-1.5-0.1-2.1
			s-0.2-1.2-0.4-1.8s-0.5-1.1-0.8-1.5s-0.8-0.7-1.3-1c-0.5-0.2-1.2-0.4-1.9-0.4h-6.6V498.5z"/>
		<path class="st0" d="M255,508.7v-15.4c0-7.5,3.2-11.3,9.6-11.3c1,0,1.9,0.1,2.8,0.3c0.9,0.2,1.5,0.5,2.1,0.9s1.1,0.9,1.5,1.5
			s0.8,1.2,1,1.9c0.3,0.6,0.5,1.4,0.6,2.3c0.2,0.9,0.3,1.7,0.3,2.5c0.1,0.8,0.1,1.7,0.1,2.7v0.3h-3.3v-0.3c0-0.1,0-0.1,0-0.3
			c0-1,0-1.8,0-2.3s-0.1-1.2-0.2-2.1s-0.2-1.5-0.5-2c-0.2-0.5-0.5-0.9-0.9-1.4s-0.9-0.9-1.5-1.1s-1.4-0.3-2.2-0.3
			c-1.2,0-2.2,0.2-3,0.6s-1.5,1-2,1.7s-0.8,1.5-1,2.3s-0.3,1.7-0.3,2.7v18.2c0,0.9,0.1,1.8,0.3,2.5c0.2,0.7,0.5,1.4,0.9,2.1
			c0.4,0.7,1,1.2,1.9,1.6c0.8,0.4,1.9,0.6,3.1,0.6c1.1,0,2.1-0.2,2.9-0.6s1.4-0.9,1.8-1.6c0.4-0.7,0.7-1.4,0.8-2.1
			c0.2-0.7,0.2-1.5,0.2-2.4v-6.1h-4.5v-2.4h7.7V519h-1.5l-1-3.5c-0.5,1.3-1.3,2.3-2.5,3s-2.6,1.1-4,1.1c-1,0-1.9-0.1-2.7-0.3
			c-0.8-0.2-1.5-0.4-2.1-0.7s-1.1-0.6-1.6-1.1c-0.5-0.4-0.9-0.9-1.2-1.3c-0.3-0.4-0.6-0.9-0.8-1.5c-0.2-0.6-0.4-1.1-0.5-1.6
			s-0.2-1-0.3-1.6c-0.1-0.6-0.1-1.1-0.1-1.4C255,509.6,255,509.2,255,508.7z"/>
		<path class="st0" d="M278.6,518.8v-36.3h9.7c1.2,0,2.3,0.2,3.2,0.5c0.9,0.3,1.7,0.8,2.3,1.3c0.6,0.6,1,1.2,1.4,2.1
			c0.4,0.8,0.6,1.7,0.7,2.6s0.2,1.9,0.2,2.9c0,4.6-1.7,7.6-5.1,8.8l5.6,18.2h-3.4l-5.3-17.8h-6.1v17.8L278.6,518.8L278.6,518.8
			L278.6,518.8z M281.8,498.5h6.5c0.9,0,1.7-0.2,2.3-0.5c0.6-0.3,1.1-0.9,1.4-1.6s0.5-1.4,0.7-2.1s0.2-1.6,0.2-2.5
			c0-0.8,0-1.5-0.1-2.1s-0.2-1.2-0.4-1.8s-0.5-1.1-0.8-1.5s-0.8-0.7-1.3-1c-0.5-0.2-1.2-0.4-1.9-0.4h-6.5v13.5H281.8z"/>
		<path class="st0" d="M300.5,508.3v-15.2c0-1.3,0.1-2.5,0.3-3.5c0.2-1.1,0.5-2.1,1-3c0.5-1,1-1.8,1.7-2.4c0.7-0.7,1.6-1.2,2.6-1.6
			c1.1-0.4,2.3-0.6,3.7-0.6s2.6,0.2,3.7,0.6s2,0.9,2.6,1.6c0.7,0.7,1.3,1.5,1.7,2.4c0.5,1,0.8,2,1,3c0.2,1.1,0.3,2.2,0.3,3.5v15.2
			c0,7.4-3.1,11.1-9.3,11.1S300.5,515.7,300.5,508.3z M315.8,509v-16.7c0-5.2-2-7.8-6.1-7.8s-6.1,2.6-6.1,7.8V509
			c0,5.2,2,7.8,6.1,7.8S315.8,514.2,315.8,509z"/>
		<path class="st0" d="M324,509.9v-27.4h3.2v28.2c0,2.1,0.5,3.6,1.4,4.7c0.9,1,2.5,1.5,4.8,1.5c2.1,0,3.6-0.5,4.5-1.5
			s1.4-2.6,1.4-4.6v-28.3h3.2v27.4c0,6.3-3,9.5-9.1,9.5c-1.5,0-2.7-0.2-3.8-0.5c-1.1-0.3-2-0.8-2.7-1.4s-1.3-1.3-1.7-2.1
			c-0.4-0.8-0.7-1.7-0.9-2.6C324.1,511.9,324,511,324,509.9z"/>
		<path class="st0" d="M348.5,518.8v-36.3h8.9c1.3,0,2.4,0.2,3.4,0.5s1.8,0.8,2.5,1.4c0.6,0.6,1.2,1.3,1.6,2.2
			c0.4,0.8,0.7,1.7,0.9,2.7c0.2,0.9,0.3,1.9,0.3,3s-0.1,2.1-0.2,3.1c-0.1,0.9-0.4,1.9-0.8,2.8s-0.9,1.7-1.5,2.4
			c-0.6,0.6-1.5,1.2-2.5,1.6s-2.2,0.6-3.6,0.6h-5.8V519h-3.2V518.8z M351.7,500.1h6c1.8,0,3.1-0.6,3.9-1.9s1.2-3.2,1.2-5.9
			c0-2.5-0.4-4.3-1.2-5.5s-2.1-1.8-3.8-1.8h-6v15.1L351.7,500.1L351.7,500.1z"/>
	</g>
</g>
</svg>
